#!OML:ASF F:\VICON\USERDATA\INSTALL\rory3\rory3.ASF
:FULLY-SPECIFIED
:DEGREES
18
root 0.8532004851664948 17.721810865597064 -15.393888733391885 0.611318228364004 -7.219714559831139 -8.965483115561316
lfemur -25.773688404318193 -5.691877569559535 -7.0847585760828675
ltibia 12.62381090014101
lfoot -6.5069391282491615 13.109880263319392
ltoes -0.4674924894354069
rfemur 11.39938423115451 8.370175921248752 35.48568539493013
rtibia 23.550307546584044
rfoot -17.98828973631688 -5.057512393035441
rtoes -6.620394103688266
lowerback 8.691004974505265 2.9330266160645384 9.205021839660079
upperback -0.2961010962253717 4.95995518709312 2.346412991735665
thorax -4.627068063893846 2.2524457284336696 -3.28537289908305
lowerneck -16.812697477122132 -2.8426115795334472 -1.2787701966704126
upperneck 21.771091012831672 -3.6821302757348358 0.25725346030489626
head 9.702821477831352 -1.7836801369709954 -0.18316457836539876
lclavicle -1.9532406450981726e-15 9.067692723530627e-16
lhumerus -38.738586601774266 6.998757908063223 81.50190918757808
lradius 21.815007350813346
lwrist 2.181877858017033
lhand -26.959001191496252 19.654510470509692
lfingers 7.12502
lthumb -0.3804511870336866 49.633910361194204
rclavicle -1.9532406450981726e-15 9.067692723530627e-16
rhumerus -21.923517371658598 -8.06256624847206 -82.9950867742963
rradius 29.725085257422307
rwrist 1.1132423606602018
rhand -18.355892863989816 25.061889215076977
rfingers 7.12502
rthumb 7.926847146354429 -4.769470633268893
19
root 0.9375104558386229 17.81860543891849 -14.527988626046733 0.022008355980806193 -7.234754475630092 -7.496886901058314
lfemur -24.746089215547553 -3.719455198102091 -10.409513341748289
ltibia 15.30130877322166
lfoot 0.23016680166390024 5.892660333826589
ltoes -1.7083827079959812
rfemur 12.90218248024053 7.801058223463533 33.32958872192012
rtibia 26.202905809557773
rfoot -14.400793910306879 -2.7755366056489796
rtoes -10.656977594749232
lowerback 8.540246829799294 2.9138266461730233 7.867065018579174
upperback -0.20208062618759076 4.766206011775012 2.1079354099527277
thorax -4.547449877913833 2.193726203212331 -2.7670449077108734
lowerneck -16.94959562521856 -2.854351169485531 -1.4385578136960187
upperneck 22.05608757555889 -3.6150117123089087 0.09139804424957265
head 9.828907520120653 -1.7837401337014243 -0.21042469538089728
lclavicle -1.953240668309855e-15 9.067691698370575e-16
lhumerus -39.17258531741338 8.868084440712636 80.74981353868068
lradius 20.294110380804455
lwrist 1.1092113876138066
lhand -27.20779988398527 18.486013423628464
lfingers 7.12502
lthumb -0.6207718830625032 48.46481334551369
rclavicle -1.953240668309855e-15 9.067691698370575e-16
rhumerus -22.88961476027386 -9.356964423858006 -82.56978811802216
rradius 29.250086659379477
rwrist 1.5441812160578747
rhand -19.79068056811943 23.016497396537524
rfingers 7.12502
rthumb 6.541909541516062 -6.862472288995693
20
root 0.9908761948404838 17.91849983086025 -13.649488055302706 -1.0373296405705286 -5.646659136068106 -4.494634179781096
lfemur -22.27719022537538 -3.7424851139631716 -14.944307183298314
ltibia 16.290208691643464
lfoot 3.032019168241658 0.12930670301911695
ltoes -3.0354206907448145
rfemur 11.89078400925824 6.226153805524597 29.764293886773675
rtibia 32.99190207763438
rfoot -7.956000361774434 -1.7821085846743205
rtoes -9.703399654319972
lowerback 8.386508755661877 2.632318416270415 4.8094418349672425
upperback -0.310184706090004 4.050038748753855 1.3735428286903804
thorax -4.7938942592088205 1.8981187320546602 -1.7586790126801324
lowerneck -16.252005056453207 -3.0290950393980447 -1.45551756289873
upperneck 22.235285481081835 -3.8949857156685948 0.19302229797895087
head 9.766519466495149 -1.905843339760116 -0.19979702781138578
lclavicle -1.953240616762468e-15 9.06769238669254e-16
lhumerus -39.31988574158561 10.017582226890731 79.69281944954392
lradius 18.12041514564464
lwrist -0.6389308688476385
lhand -27.03950076852578 18.00751482884036
lfingers 7.12502
lthumb -0.45825576913038296 47.98681473835517
rclavicle -1.953240616762468e-15 9.06769238669254e-16
rhumerus -24.53371021897866 -12.342309478015604 -81.76359100815813
rradius 27.669691443260916
rwrist 2.5871189760503137
rhand -20.067978094997287 22.673998759517747
rfingers 7.12502
rthumb 6.274181882942772 -7.21312090728632
21
root 0.8051979006063981 18.04948927968745 -7.4972555526923 -2.896601685733671 -5.8080213535515455 -2.6421049016097244
lfemur -22.324562772993545 -2.6386006542438505 -17.69883076813033
ltibia 23.071137051633652
lfoot -3.4401809203984084 -0.4124241499894134
ltoes -5.398878671374831
rfemur 8.139982374653094 4.818052385425757 28.906873578385227
rtibia 40.09039906087943
rfoot 0.5422320302266765 0.8748890474146549
rtoes -3.573661596582505
lowerback 8.914817893116775 2.7430301445929492 3.8483090600648318
upperback 0.227364486433302 4.311589385799918 0.929644348572836
thorax -4.818080168312077 1.862578388359664 -1.7209813410403
lowerneck -16.546088471034384 -3.1435204689863316 -1.588871311309477
upperneck 21.87583144187813 -3.8239458578446106 0.2303761180679974
head 9.620881027615543 -1.9130962534157168 -0.0827419562161466
lclavicle -1.9521190021397604e-15 9.078022318453291e-16
lhumerus -38.24099592192116 9.384724812254568 80.17009987149044
lradius 17.511057532785905
lwrist -0.57232367160917
lhand -27.178046116016212 20.651703169615214
lfingers 7.12502
lthumb -0.556663059611338 50.744709715366916
rclavicle -1.953473470307168e-15 9.065547805262172e-16
rhumerus -26.47193572398797 -13.812152075937032 -81.1482499065381
rradius 27.442819626547287
rwrist 4.1202653844712405
rhand -18.58103981791751 22.49274760302185
rfingers 7.12502
rthumb 7.898320362266435 -6.999171029856946
22
root 0.848727687670926 18.085798861428906 -6.773498356554738 -3.483876845685275 -6.258755294961574 -1.3312323932094776
lfemur -19.6233685888771 -2.859217790057464 -20.78882390026991
ltibia 24.47148845455931
lfoot -6.298653771617838 3.0539074676668214
ltoes -7.584736085667638
rfemur 2.9701104622778995 4.025452954913606 26.469240082853837
rtibia 49.29607723082299
rfoot 12.037898306353377 1.7498674158902379
rtoes 5.260603038497045
lowerback 9.222681079740545 2.687051739637938 2.011452992756797
upperback 0.26948296050486387 3.9809458319379556 0.4353243707470211
thorax -4.890977527669029 1.7268444838688468 -1.1789396772233873
lowerneck -16.298797568710963 -3.173612195433214 -1.3848274874466164
upperneck 21.791280306723323 -3.740546361440095 0.22376153459085968
head 9.625484985433696 -1.904497795364375 -0.11868971423208555
lclavicle -1.9521193876600066e-15 9.07801876785128e-16
lhumerus -38.237278825018805 7.769879131926376 80.84961332657699
lradius 17.20254920174331
lwrist 0.8471455396728373
lhand -27.202761959527972 20.92233960144542
lfingers 7.12502
lthumb -0.5413503592036787 51.06752140736884
rclavicle -1.9534740069624787e-15 9.065542862721689e-16
rhumerus -26.984453849730638 -14.93322661202467 -81.04118492813637
rradius 26.96847363633785
rwrist 5.890873053373392
rhand -18.083277620252705 22.473446053205528
rfingers 7.12502
rthumb 8.325374637124613 -6.938611726600315
23
root 0.8681270018936977 18.103439779956293 -6.408530231803381 -3.9071294508948977 -6.613136533932238 -0.37617438495533784
lfemur -16.793863111784432 -3.15016333279892 -22.877280807517845
ltibia 25.58671841473957
lfoot -8.337078788826684 3.2020729811408817
ltoes -9.108810407583057
rfemur -1.9644537763472396 2.814905462919464 24.470018288194257
rtibia 59.570021324889126
rfoot 16.95079760293719 -0.8739211542260286
rtoes 12.536175762897182
lowerback 9.563084336239942 2.545155968374738 0.8405311407948837
upperback 0.4463651712457851 3.843357800799364 0.1824458792817314
thorax -4.861388525753289 1.580888097501345 -0.6297024619612573
lowerneck -16.421832306804447 -3.137089419260802 -1.5030807398918649
upperneck 21.65313924416567 -3.7236788721402916 0.20401082114346325
head 9.585018235897369 -1.8923331520589803 -0.07409821368614589
lclavicle -1.952118846297041e-15 9.078023753748788e-16
lhumerus -37.76463842085253 6.945771514415248 81.27934840904787
lradius 17.22895848759805
lwrist 2.2702099347489235
lhand -27.08190636007522 21.775617785234836
lfingers 7.12502
lthumb -0.49403040396728104 51.79534651263732
rclavicle -1.9534740692494898e-15 9.06554228906469e-16
rhumerus -27.113309911083352 -16.4943994737557 -80.88532880832842
rradius 26.329607900193256
rwrist 7.390556648602789
rhand -17.585357343746633 22.081060617840787
rfingers 7.12502
rthumb 8.769651220437263 -7.224047071958556
24
root 0.8637970748089348 18.103824845072 -5.670379025697079 -4.22479835627236 -6.47045904033587 0.21219312504304844
lfemur -13.582393624731981 -3.149616919548935 -23.96567369536175
ltibia 26.393186612892247
lfoot -9.006080770519887 3.068324616780081
ltoes -8.798072769581266
rfemur -8.067491181309482 1.0469475525171883 22.994258332968073
rtibia 68.08083262178906
rfoot 12.38184305482682 -4.268634682292479
rtoes 14.083153386997251
lowerback 9.823500380979748 2.067136402153162 -0.12129546755502996
upperback 0.5016933188644733 3.306473308788557 0.0535994019210706
thorax -4.983021967639182 1.3830125058268312 -0.2926756840435424
lowerneck -16.619177318913962 -3.1294818929981827 -1.5576639959411245
upperneck 21.741386660256435 -3.666537073497529 0.3087077265462367
head 9.584417461197937 -1.864266286780489 -0.10047580295081793
lclavicle -1.9521180864423842e-15 9.078030751932399e-16
lhumerus -37.36240150786863 6.4310887237604835 81.37778676701923
lradius 17.64683823493548
lwrist 2.751588092785979
lhand -27.257142494605713 21.66131049084208
lfingers 7.12502
lthumb -0.6479377934323375 51.646585968863306
rclavicle -1.9534742835965204e-15 9.065540314950478e-16
rhumerus -27.497162443501974 -18.645609625544303 -80.53790014860627
rradius 26.255775346160515
rwrist 7.955766963167927
rhand -17.19074391267015 22.186475905086787
rfingers 7.12502
rthumb 9.038530464096487 -7.487294256615007
